<svg xmlns="http://www.w3.org/2000/svg" viewBox="0 0 512 512" role="img" aria-label="Movie Sansar icon">
  <defs>
    <linearGradient id="g" x1="70" y1="50" x2="440" y2="470" gradientUnits="userSpaceOnUse">
      <stop stop-color="#35D9FF"/>
      <stop offset=".48" stop-color="#6C5CE7"/>
      <stop offset="1" stop-color="#F04CFF"/>
    </linearGradient>
    <linearGradient id="g2" x1="110" y1="90" x2="400" y2="420" gradientUnits="userSpaceOnUse">
      <stop stop-color="#A7F3FF"/>
      <stop offset="1" stop-color="#FFFFFF"/>
    </linearGradient>
    <filter id="glow" x="-30%" y="-30%" width="160%" height="160%">
      <feGaussianBlur stdDeviation="12" result="b"/>
      <feMerge><feMergeNode in="b"/><feMergeNode in="SourceGraphic"/></feMerge>
    </filter>
  </defs>
  <rect width="512" height="512" rx="116" fill="#080B16"/>
  <circle cx="256" cy="256" r="180" fill="url(#g)" opacity=".13" filter="url(#glow)"/>
  <path d="M150 102c-29 0-52 23-52 52v204c0 29 23 52 52 52 15 0 29-6 39-17l76-82 76 82c10 11 24 17 39 17 29 0 52-23 52-52V154c0-29-23-52-52-52H150Z" fill="url(#g)"/>
  <path d="M157 139c-12 0-22 10-22 22v172c0 12 10 22 22 22 7 0 12-3 17-8l71-77c6-6 16-6 22 0l71 77c5 5 10 8 17 8 12 0 22-10 22-22V161c0-12-10-22-22-22H157Z" fill="#0A0E1A" opacity=".96"/>
  <path d="M214 180c-10-6-22 1-22 13v126c0 12 12 19 22 13l106-63c10-6 10-20 0-26l-106-63Z" fill="url(#g2)"/>
  <circle cx="389" cy="115" r="12" fill="#35D9FF"/>
  <circle cx="418" cy="139" r="7" fill="#F04CFF"/>
  <circle cx="402" cy="91" r="5" fill="#A78BFA"/>
</svg>
